<?xml version="1.0" encoding="utf-8"?>
<!-- Generator: Adobe Illustrator 17.0.2, SVG Export Plug-In . SVG Version: 6.00 Build 0)  -->
<!DOCTYPE svg PUBLIC "-//W3C//DTD SVG 1.1//EN" "http://www.w3.org/Graphics/SVG/1.1/DTD/svg11.dtd">
<svg version="1.1" id="Ebene_1" xmlns="http://www.w3.org/2000/svg" xmlns:xlink="http://www.w3.org/1999/xlink" x="0px" y="0px"
	 width="119.667px" height="119.667px" viewBox="0 0 119.667 119.667" enable-background="new 0 0 119.667 119.667"
	 xml:space="preserve">
<g>
	<path fill="#45A792" d="M32.817,93.139l0.109-0.109c-0.211-0.239-0.343-0.55-0.343-0.893v-45.9c0-0.75,0.608-1.358,1.358-1.358
		h11.1v-20.96c0-0.967,0.908-1.75,2.028-1.75h36.64c0.62,0,1.167,0.245,1.539,0.623l8.958,8.958l0,0l25.392,25.392
		C118.19,25.346,91.976,0,59.833,0C26.788,0,0,26.788,0,59.833c0,32.877,26.519,59.55,59.332,59.821L32.817,93.139z"/>
	<path fill="#B9D8D0" d="M119.599,57.141L94.207,31.749l0,0l-8.958-8.958c0.3,0.305,0.489,0.696,0.489,1.128v16.3v42.863
		c0,0.967-0.908,1.75-2.028,1.75H59.833v7.305c0,0.75-0.608,1.358-1.358,1.358H33.941c-0.406,0-0.766-0.182-1.015-0.464
		l-0.109,0.109l26.515,26.515c0.168,0.001,0.333,0.013,0.501,0.013c33.045,0,59.833-26.788,59.833-59.833
		C119.667,58.93,119.638,58.034,119.599,57.141z"/>
	<path fill="#2D424F" d="M48.234,25.966h34.311v51H59.833v7.866h23.876c1.12,0,2.028-0.784,2.028-1.75V40.219v-16.3
		c0-0.432-0.188-0.822-0.489-1.128c-0.372-0.378-0.92-0.623-1.539-0.623H47.07c-1.12,0-2.028,0.784-2.028,1.75v20.96h3.193
		L48.234,25.966L48.234,25.966z"/>
	<path fill="#3C5767" d="M83.001,25.813H47.778v19.259h10.513c0.77,0,1.394,0.619,1.394,1.383v31.29H83V25.813H83.001z"/>
	<circle fill="#3C5767" cx="65.389" cy="80.927" r="1.997"/>
	<path fill="#2D424F" d="M33.941,93.495h24.534c0.75,0,1.358-0.608,1.358-1.358v-7.305v-7.866V46.237
		c0-0.75-0.608-1.358-1.358-1.358H48.234h-3.193h-11.1c-0.75,0-1.358,0.608-1.358,1.358v45.9c0,0.344,0.132,0.654,0.343,0.893
		C33.175,93.313,33.535,93.495,33.941,93.495z M34.721,86.278V50.353h22.975v35.924L34.721,86.278L34.721,86.278z"/>
	<rect x="34.167" y="50" fill="#3C5767" width="24.083" height="36.63"/>
	<circle fill="#3C5767" cx="46.208" cy="90.154" r="1.997"/>
	<path fill="#3C5767" d="M43.494,47.603h5.429c0.173,0,0.312-0.14,0.312-0.312c0-0.173-0.14-0.312-0.312-0.312h-5.429
		c-0.173,0-0.312,0.14-0.312,0.312S43.321,47.603,43.494,47.603z"/>
</g>
</svg>
