<?xml version="1.0" encoding="utf-8"?>
<!-- Generator: Adobe Illustrator 17.0.2, SVG Export Plug-In . SVG Version: 6.00 Build 0)  -->
<!DOCTYPE svg PUBLIC "-//W3C//DTD SVG 1.1//EN" "http://www.w3.org/Graphics/SVG/1.1/DTD/svg11.dtd">
<svg version="1.1" id="Ebene_1" xmlns="http://www.w3.org/2000/svg" xmlns:xlink="http://www.w3.org/1999/xlink" x="0px" y="0px"
	 width="30px" height="32px" viewBox="0 0 30 32" enable-background="new 0 0 30 32" xml:space="preserve">
<path fill="#E2574C" d="M15,0C6.716,0,0,6.715,0,14.996v8h0.005C0.003,25.501,0.01,32,0.01,32c2.365,0,3.24-3,4.99-3s3.437,3,5,3
	s2.812-3,5-3s3.25,3,5,3s2.518-3,5-3c2.48,0,2.488,3,4.971,3c-0.014-0.005,0.014-6.498,0.025-9.004H30v-8C30,6.715,23.284,0,15,0z"
	/>
<path fill="#E4E7E7" d="M20.5,13.001c-1.934,0-3.5,1.566-3.5,3.5C17,18.434,18.566,20,20.5,20s3.5-1.566,3.5-3.499
	C24,14.567,22.434,13.001,20.5,13.001z M9.5,13.001c-1.933,0-3.5,1.566-3.5,3.5C6,18.434,7.567,20,9.5,20s3.5-1.566,3.5-3.499
	C13,14.567,11.433,13.001,9.5,13.001z"/>
<path fill="#324D5B" d="M20.5,15c-0.828,0-1.5,0.672-1.5,1.501C19,17.329,19.672,18,20.5,18s1.5-0.671,1.5-1.499
	C22,15.672,21.328,15,20.5,15z M9.5,15C8.672,15,8,15.672,8,16.501C8,17.329,8.672,18,9.5,18s1.5-0.671,1.5-1.499
	C11,15.672,10.328,15,9.5,15z"/>
<path fill="#D25147" d="M2.003,14.996C2.003,7.051,8.187,0.567,16,0.05C15.668,0.028,15.338,0,15,0
	C6.718,0,0.003,6.714,0.003,14.996c0,0-0.003,16.857,0.01,17.004c0.923,0,1.392-0.384,1.993-0.811
	C2.002,29.44,2.003,14.996,2.003,14.996z"/>
</svg>
