<?xml version="1.0" encoding="utf-8"?>
<!-- Generator: Adobe Illustrator 17.0.2, SVG Export Plug-In . SVG Version: 6.00 Build 0)  -->
<!DOCTYPE svg PUBLIC "-//W3C//DTD SVG 1.1//EN" "http://www.w3.org/Graphics/SVG/1.1/DTD/svg11.dtd">
<svg version="1.1" id="Ebene_1" xmlns="http://www.w3.org/2000/svg" xmlns:xlink="http://www.w3.org/1999/xlink" x="0px" y="0px"
	 width="119.667px" height="119.667px" viewBox="0 0 119.667 119.667" enable-background="new 0 0 119.667 119.667"
	 xml:space="preserve">
<g>
	<path fill="#45A792" d="M22.831,83.716c-0.912-0.82-1.497-1.996-1.497-3.319v-6.864V36.226c0-2.472,2.004-4.477,4.477-4.477h68.047
		c1.174,0,2.234,0.462,3.033,1.202l0.02-0.02l22.586,22.586C117.28,24.489,91.425,0,59.833,0C26.788,0,0,26.788,0,59.833
		c0,32.683,26.209,59.228,58.754,59.806L22.831,83.716z"/>
	<path fill="#B9D8D0" d="M119.495,55.517L96.909,32.931l-0.02,0.02c0.883,0.818,1.444,1.977,1.444,3.275v25.008v12.298v6.864
		c0,2.472-2.004,4.477-4.477,4.477H66.231v7.61h0.037l2.444,1.912l0.989,0.774h-1.977H51.943h-1.977l0.989-0.774l2.444-1.912v-7.61
		H25.81c-1.15,0-2.187-0.446-2.98-1.158l35.924,35.924c0.36,0.006,0.717,0.027,1.079,0.027c26.224,0,48.492-16.878,56.574-40.358
		c2.102-6.107,3.259-12.654,3.259-19.475C119.667,58.38,119.597,56.944,119.495,55.517z"/>
	<path fill="#2D424F" d="M98.333,73.532V61.234V36.226c0-1.298-0.561-2.457-1.444-3.275c-0.799-0.74-1.858-1.202-3.033-1.202H25.81
		c-2.473,0-4.477,2.004-4.477,4.477v37.306H98.333z"/>
	<path fill="#ECF0F0" d="M53.398,84.873h12.833h27.625c2.472,0,4.477-2.004,4.477-4.477v-6.864h-77v6.864
		c0,1.323,0.585,2.499,1.497,3.319c0.793,0.712,1.83,1.158,2.98,1.158H53.398z M59.833,75.621c1.483,0,2.686,1.203,2.686,2.686
		s-1.203,2.686-2.686,2.686s-2.686-1.203-2.686-2.686S58.35,75.621,59.833,75.621z"/>
	<rect x="26.556" y="36.524" fill="#3C5767" width="66.554" height="33.426"/>
	<circle fill="#3C5767" cx="59.833" cy="78.307" r="2.686"/>
	<polygon fill="#E2E2E2" points="52.963,92.67 52.963,92.67 66.664,92.67 66.664,84.873 52.963,84.873 	"/>
	<polygon fill="#E2E2E2" points="52.963,92.67 52.963,92.67 50.355,94.629 49.299,95.422 51.41,95.422 68.257,95.422 70.368,95.422 
		69.312,94.629 66.703,92.67 66.664,92.67 	"/>
</g>
</svg>
