<?xml version="1.0" encoding="utf-8"?>
<!-- Generator: Adobe Illustrator 17.1.0, SVG Export Plug-In . SVG Version: 6.00 Build 0)  -->
<!DOCTYPE svg PUBLIC "-//W3C//DTD SVG 1.1 Tiny//EN" "http://www.w3.org/Graphics/SVG/1.1/DTD/svg11-tiny.dtd">
<svg version="1.1" baseProfile="tiny" id="Ebene_1" xmlns="http://www.w3.org/2000/svg" xmlns:xlink="http://www.w3.org/1999/xlink"
	 x="0px" y="0px" viewBox="0 0 119.7 119.7" xml:space="preserve">
<g>
	<path fill="#45A792" d="M32.8,93.1l0.1-0.1c-0.2-0.2-0.3-0.6-0.3-0.9V46.2c0-0.8,0.6-1.4,1.4-1.4H45v-21c0-1,0.9-1.8,2-1.8h36.6
		c0.6,0,1.2,0.2,1.5,0.6l9,9l0,0l25.4,25.4C118.2,25.3,92,0,59.8,0C26.8,0,0,26.8,0,59.8c0,32.9,26.5,59.5,59.3,59.8L32.8,93.1z"/>
	<path fill="#B9D8D0" d="M119.6,57.1L94.2,31.7l0,0l-9-9c0.3,0.3,0.5,0.7,0.5,1.1v16.3v42.9c0,1-0.9,1.8-2,1.8H59.8v7.3
		c0,0.8-0.6,1.4-1.4,1.4H33.9c-0.4,0-0.8-0.2-1-0.5l-0.1,0.1l26.5,26.5c0.2,0,0.3,0,0.5,0c33,0,59.8-26.8,59.8-59.8
		C119.7,58.9,119.6,58,119.6,57.1z"/>
	<path fill="#2D424F" d="M48.2,26h34.3v51H59.8v7.9h23.9c1.1,0,2-0.8,2-1.8V40.2V23.9c0-0.4-0.2-0.8-0.5-1.1
		c-0.4-0.4-0.9-0.6-1.5-0.6H47.1c-1.1,0-2,0.8-2,1.8v21h3.2L48.2,26L48.2,26z"/>
	<path fill="#3C5767" d="M83,25.8H47.8v19.3h10.5c0.8,0,1.4,0.6,1.4,1.4v31.3H83L83,25.8L83,25.8z"/>
	<circle fill="#3C5767" cx="65.4" cy="80.9" r="2"/>
	<path fill="#2D424F" d="M33.9,93.5h24.5c0.8,0,1.4-0.6,1.4-1.4v-7.3V77V46.2c0-0.8-0.6-1.4-1.4-1.4H48.2H45H33.9
		c-0.8,0-1.4,0.6-1.4,1.4v45.9c0,0.3,0.1,0.7,0.3,0.9C33.2,93.3,33.5,93.5,33.9,93.5z M34.7,86.3V50.4h23v35.9L34.7,86.3L34.7,86.3z
		"/>
	<rect x="34.2" y="50" fill="#3C5767" width="24.1" height="36.6"/>
	<circle fill="#3C5767" cx="46.2" cy="90.2" r="2"/>
	<path fill="#3C5767" d="M43.5,47.6h5.4c0.2,0,0.3-0.1,0.3-0.3c0-0.2-0.1-0.3-0.3-0.3h-5.4c-0.2,0-0.3,0.1-0.3,0.3
		S43.3,47.6,43.5,47.6z"/>
</g>
</svg>
