<?xml version="1.0" encoding="utf-8"?>
<!-- Generator: Adobe Illustrator 17.1.0, SVG Export Plug-In . SVG Version: 6.00 Build 0)  -->
<!DOCTYPE svg PUBLIC "-//W3C//DTD SVG 1.1 Tiny//EN" "http://www.w3.org/Graphics/SVG/1.1/DTD/svg11-tiny.dtd">
<svg version="1.1" baseProfile="tiny" id="Ebene_1" xmlns="http://www.w3.org/2000/svg" xmlns:xlink="http://www.w3.org/1999/xlink"
	 x="0px" y="0px" viewBox="0 0 30 32" xml:space="preserve">
<path fill="#E2574C" d="M15,0C6.7,0,0,6.7,0,15v8h0c0,2.5,0,9,0,9c2.4,0,3.2-3,5-3s3.4,3,5,3s2.8-3,5-3s3.2,3,5,3s2.5-3,5-3
	c2.5,0,2.5,3,5,3c0,0,0-6.5,0-9h0v-8C30,6.7,23.3,0,15,0z"/>
<path fill="#E4E7E7" d="M20.5,13c-1.9,0-3.5,1.6-3.5,3.5c0,1.9,1.6,3.5,3.5,3.5s3.5-1.6,3.5-3.5C24,14.6,22.4,13,20.5,13z M9.5,13
	C7.6,13,6,14.6,6,16.5C6,18.4,7.6,20,9.5,20s3.5-1.6,3.5-3.5C13,14.6,11.4,13,9.5,13z"/>
<path fill="#324D5B" d="M20.5,15c-0.8,0-1.5,0.7-1.5,1.5c0,0.8,0.7,1.5,1.5,1.5s1.5-0.7,1.5-1.5C22,15.7,21.3,15,20.5,15z M9.5,15
	C8.7,15,8,15.7,8,16.5C8,17.3,8.7,18,9.5,18s1.5-0.7,1.5-1.5C11,15.7,10.3,15,9.5,15z"/>
<path fill="#D25147" d="M2,15C2,7.1,8.2,0.6,16,0.1C15.7,0,15.3,0,15,0C6.7,0,0,6.7,0,15c0,0,0,16.9,0,17c0.9,0,1.4-0.4,2-0.8
	C2,29.4,2,15,2,15z"/>
</svg>
