<?xml version="1.0" encoding="utf-8"?>
<!-- Generator: Adobe Illustrator 17.1.0, SVG Export Plug-In . SVG Version: 6.00 Build 0)  -->
<!DOCTYPE svg PUBLIC "-//W3C//DTD SVG 1.1 Tiny//EN" "http://www.w3.org/Graphics/SVG/1.1/DTD/svg11-tiny.dtd">
<svg version="1.1" baseProfile="tiny" id="Ebene_1" xmlns="http://www.w3.org/2000/svg" xmlns:xlink="http://www.w3.org/1999/xlink"
	 x="0px" y="0px" viewBox="0 0 119.7 119.7" xml:space="preserve">
<g>
	<path fill="#45A792" d="M22.8,83.7c-0.9-0.8-1.5-2-1.5-3.3v-6.9V36.2c0-2.5,2-4.5,4.5-4.5h68c1.2,0,2.2,0.5,3,1.2l0,0l22.6,22.6
		C117.3,24.5,91.4,0,59.8,0C26.8,0,0,26.8,0,59.8c0,32.7,26.2,59.2,58.8,59.8L22.8,83.7z"/>
	<path fill="#B9D8D0" d="M119.5,55.5L96.9,32.9l0,0c0.9,0.8,1.4,2,1.4,3.3v25v12.3v6.9c0,2.5-2,4.5-4.5,4.5H66.2v7.6h0l2.4,1.9
		l1,0.8h-2H51.9h-2l1-0.8l2.4-1.9v-7.6H25.8c-1.1,0-2.2-0.4-3-1.2l35.9,35.9c0.4,0,0.7,0,1.1,0c26.2,0,48.5-16.9,56.6-40.4
		c2.1-6.1,3.3-12.7,3.3-19.5C119.7,58.4,119.6,56.9,119.5,55.5z"/>
	<path fill="#2D424F" d="M98.3,73.5V61.2v-25c0-1.3-0.6-2.5-1.4-3.3c-0.8-0.7-1.9-1.2-3-1.2h-68c-2.5,0-4.5,2-4.5,4.5v37.3H98.3z"/>
	<path fill="#ECF0F0" d="M53.4,84.9h12.8h27.6c2.5,0,4.5-2,4.5-4.5v-6.9h-77v6.9c0,1.3,0.6,2.5,1.5,3.3c0.8,0.7,1.8,1.2,3,1.2H53.4z
		 M59.8,75.6c1.5,0,2.7,1.2,2.7,2.7S61.3,81,59.8,81s-2.7-1.2-2.7-2.7S58.3,75.6,59.8,75.6z"/>
	<rect x="26.6" y="36.5" fill="#3C5767" width="66.6" height="33.4"/>
	<circle fill="#3C5767" cx="59.8" cy="78.3" r="2.7"/>
	<polygon fill="#E2E2E2" points="53,92.7 53,92.7 66.7,92.7 66.7,84.9 53,84.9 	"/>
	<polygon fill="#E2E2E2" points="53,92.7 53,92.7 50.4,94.6 49.3,95.4 51.4,95.4 68.3,95.4 70.4,95.4 69.3,94.6 66.7,92.7 
		66.7,92.7 	"/>
</g>
</svg>
